<svg width="47" height="48" viewBox="0 0 47 48" fill="none" xmlns="http://www.w3.org/2000/svg">
<path d="M33.5584 0C38.2447 2.36791 42.0659 6.323 44.4256 11.249C46.7853 16.175 47.5517 21.7953 46.6053 27.2344C45.6589 32.6735 43.0528 37.626 39.1932 41.3203C35.3336 45.0145 30.437 47.2433 25.2664 47.6592C20.0959 48.0749 14.9413 46.6544 10.6063 43.6191C6.27129 40.5839 2.99857 36.1041 1.29867 30.8779C-0.401198 25.6516 -0.433181 19.9714 1.20785 14.7236C2.84891 9.47605 6.07132 4.95475 10.3719 1.86426L14.5711 8.51562H11.6287V15.0781H18.7147L19.0506 15.6104V16.3965C17.8699 17.3514 16.9825 18.665 16.5116 20.1709C15.9971 21.816 16.007 23.597 16.5399 25.2354C17.018 26.7054 17.8942 27.9857 19.0506 28.9209V36.6992H27.3319V29.3691C27.7161 29.1194 28.0812 28.8328 28.4198 28.5088C29.6297 27.3507 30.4463 25.7978 30.743 24.0928C31.0396 22.3878 30.7991 20.6262 30.0594 19.082C29.4373 17.7833 28.4909 16.7005 27.3319 15.9473V15.0781H34.7537V8.51562H29.7782L33.5584 0ZM26.6532 15.5557C26.8867 15.6737 27.1128 15.8049 27.3319 15.9473V29.3691C26.3429 30.0119 25.221 30.4022 24.0536 30.4961C22.4327 30.6264 20.8168 30.181 19.4579 29.2295C19.3182 29.1317 19.183 29.028 19.0506 28.9209V16.3965C19.1597 16.3082 19.2706 16.2216 19.3846 16.1396L19.0506 15.6104V15.0781H18.7147L14.5711 8.51562H29.7782L26.6532 15.5557Z" fill="url(#paint0_linear_34_475)"/>
<defs>
<linearGradient id="paint0_linear_34_475" x1="30.1088" y1="11.6895" x2="30.1088" y2="73.3458" gradientUnits="userSpaceOnUse">
<stop offset="0.40762" stop-color="#ED3500"/>
<stop offset="1" stop-color="#093FB4"/>
</linearGradient>
</defs>
</svg>
